<!-- Generated by IcoMoon.io -->
<svg version="1.1" xmlns="http://www.w3.org/2000/svg" width="36" height="36" viewBox="0 0 32 32">
<title>codewars</title>
<path fill="#D32512" d="M29.298 0.021h-26.624c-1.467 0-2.667 1.2-2.667 2.667v26.624c0 1.467 1.2 2.667 2.667 2.667h26.624c1.467 0 2.667-1.2 2.667-2.667v-26.624c0-1.467-1.2-2.667-2.667-2.667zM29.904 19.013c-0.133 0.13-0.257 0.266-0.435 0.45 0.257 1.542-0.753 2.457-1.861 3.312-1.154 0.891-2.309 1.782-3.475 2.654-0.261 0.195-0.579 0.312-0.874 0.466-0.728 2.009-1.002 2.256-2.544 2.221-0.369 0.992-1.101 1.386-2.167 1.106-0.071-0.018-0.181-0.081-0.205-0.057-1.035 1.066-2.225 0.245-3.305 0.174-0.798-0.053-1.606-0.565-2.325-1.008-0.607-0.376-1.037-1.066-1.899-0.866-0.033 0.008-0.080-0.001-0.107-0.019-0.832-0.602-1.838-0.232-2.682-0.459-1.095-0.294-2.069-1.059-3.071-1.661-0.151-0.090-0.181-0.39-0.257-0.595-0.051-0.138-0.051-0.381-0.131-0.409-1.095-0.374-1.053-1.414-1.416-2.247-0.337-0.775-0.571-1.467-0.144-2.272 0.101-0.19 0.096-0.507 0.011-0.713-0.552-1.319-0.565-1.315-0.429-2.627-1.131-0.965-1.299-1.698-0.379-2.861-0.369-0.835-0.554-1.679 0.453-2.282 0.075-0.045 0.099-0.192 0.127-0.297 0.328-1.289 1.303-2.101 2.325-2.734 0.937-0.581 2.078-0.726 2.696-1.899 0.231-0.438 0.947-0.695 1.091-1.362 0.034-0.158 0.209-0.313 0.358-0.413 0.738-0.494 1.6-0.749 2.274-1.415 0.283-0.28 1.074-0.046 1.824-0.046 0.997-1.245 2.366-0.233 3.63-0.071 0.598 0.077 1.133 0.609 1.71 0.907 0.254 0.133 0.536 0.217 0.815 0.286 0.176 0.043 0.392-0.038 0.55 0.031 0.886 0.385 1.769 0.635 2.734 0.263 0.133-0.051 0.429 0.050 0.504 0.17 0.621 0.991 1.877 0.671 2.635 1.315 0.218 0.185 0.253 0.586 0.402 0.963 0.726 0.237 1.518 0.523 1.326 1.61 0.778 0.48 0.269 1.493 0.849 2.053-0.611 1.338 0.815 2.454 0.414 3.859 0.19 0.133 0.477 0.253 0.645 0.466 0.242 0.307 0.649 0.84 0.549 1.002-0.621 0.992 0.725 2.085-0.211 3.006zM15.674 6.885c-1.475 0.546-1.493 0.571-1.163 1.895-0.717 0.319-1.151 0.838-0.773 1.709 0.048 0.111 0.019 0.318-0.058 0.409-0.339 0.398-0.275 0.766-0.099 1.227 0.097 0.254-0.093 0.617-0.153 0.927 0.315 0.434 0.657 0.847 0.926 1.304 0.101 0.171 0.126 0.558 0.023 0.64-0.16 0.127-0.501 0.168-0.694 0.083-0.771-0.336-1.584-0.643-2.251-1.137-0.522-0.386-0.888-1.008-1.259-1.566-0.272-0.408-0.44-0.885-0.755-1.539 0.070-0.139 0.253-0.483 0.417-0.837 0.115-0.248 0.351-0.563 0.28-0.754-0.209-0.561 0.191-0.993 0.2-1.45 0.023-1.184 1.331-1.424 1.569-2.395 1.266-0.558 2.437-1.475 3.966-1.021 0.237 0.070 0.497 0.066 0.714 0.091 0.275 0.558-0.021 0.866-0.301 1.233-0.256 0.336-0.387 0.765-0.587 1.181zM24.84 7.915c0.559 0.495 0.99 0.877 1.477 1.309 0.119 0.527 0.256 1.13 0.392 1.731-0.075 0.059-0.15 0.118-0.225 0.176-0.983-0.641-2.23 0.070-3.181-0.762-0.072-0.063-0.216-0.083-0.318-0.067-0.952 0.145-1.951 0.166-2.841 0.485-1.68 0.603-3.217 1.493-4.288 3.218-0.735-0.779-0.727-1.579-0.559-2.37 0.162-0.763 0.434-1.506 0.677-2.322 0.929 0.010 0.888-0.861 1.141-1.376 2.067-0.794 4.054-1.661 6.393-0.837 0.221 0.514 0.65 1.045 1.333 0.815zM15.899 16.965c0.825 1.785 0.229 3.35-0.515 4.824-0.318 0.419-0.638 0.835-0.953 1.257-0.088 0.117-0.161 0.353-0.241 0.352-1.112-0.002-1.776 1.104-2.947 1.091-0.939-0.009-1.833 0.169-2.794-0.158-1.125-0.383-2.021-0.963-2.859-1.792-0.686-0.677-0.866-1.338-0.618-2.219h2.251c0.539 0.658 1.303 1.018 2.288 0.431 0.162-0.097 0.421-0.021 0.632-0.048 0.427-0.054 0.858-0.097 1.277-0.192 0.414-0.094 0.814-0.248 1.219-0.374 0.141-0.043 0.321-0.041 0.414-0.131 0.589-0.568 1.169-1.146 1.731-1.739 0.353-0.374 0.67-0.782 1.113-1.303zM6.792 9.069c-0.105 0.925 0.009 1.648 0.877 2.097-0.341 0.959-0.405 1.802 0.775 2.144 0.066 0.019 0.168 0.075 0.171 0.12 0.088 1.053 1.011 1.163 1.686 1.629 1.080 0.744 2.157 1.219 3.481 1.062 0.217-0.026 0.45 0.083 0.696 0.135-0.134 1.062-0.939 1.562-1.597 1.795-1.245 0.443-2.509 1.259-3.968 0.547-0.279-0.136-0.711 0.041-0.957 0.063-1.522-0.707-2.254-2.173-3.53-3.115 0.061-0.661 0.551-1.435-0.286-1.88 0.206-2.015 0.927-3.592 2.65-4.595zM25.331 22.616c-0.142-0.381-0.365-0.672-0.319-0.912 0.141-0.733-0.149-1.218-0.781-1.621 0.291-0.895-0.016-1.551-0.817-2.027-0.181-0.107-0.334-0.389-0.359-0.606-0.072-0.621-0.398-0.919-0.994-0.993-0.177-0.022-0.421-0.053-0.507-0.17-0.861-1.19-2.195-1.168-3.439-1.384-0.301-0.053-0.601-0.093-0.931-0.144 0.091-1.069 0.95-1.378 1.507-1.583 1.277-0.47 2.667-1.11 4.034-0.527 1.088 0.464 2.426 0.542 3.145 1.761 0.219 0.374 0.728 0.579 1.103 0.861 0.21 0.647 0.431 1.323 0.685 2.107v2.19c-0.584 0.883-1.029 2.106-2.327 3.048zM12.673 26.351c2.083 0.027 2.306-0.109 2.774-1.641 0.887-0.295 1.65-0.758 1.661-1.894 0.001-0.139 0.215-0.275 0.331-0.413 0.139-0.167 0.381-0.322 0.403-0.504 0.165-1.354 0.456-2.715-0.019-4.065-0.187-0.535-0.398-1.063-0.679-1.808 0.545 0.055 0.909 0.021 1.216 0.134 1.312 0.481 2.362 1.362 3.183 2.453 0.386 0.513 0.488 1.24 0.782 2.040-0.323 0.475-0.473 1.163 0.125 1.861-0.787 0.638-1.197 1.389-1.069 2.258-0.624 0.598-1.189 1.142-1.918 1.841-0.406 0.181-1.057 0.47-1.669 0.742-0.528 0.099-1.043 0.243-1.566 0.281-0.504 0.037-1.114 0.127-1.501-0.103-0.642-0.383-1.673-0.094-2.053-1.182z"></path>
</svg>
