<!-- Generated by IcoMoon.io -->
<svg version="1.1" xmlns="http://www.w3.org/2000/svg" width="30" height="32" viewBox="0 0 47 32">
<title>freecodecump</title>
<path fill="#fff" d="M7.787 31.952c-0.805-0.192-1.971-1.203-3.261-2.831-2.621-3.303-4.047-7.007-4.465-11.617-0.081-0.887-0.080-3.132 0.001-3.955 0.383-3.873 1.739-7.209 4.227-10.4 0.763-0.977 2.024-2.257 2.628-2.665 0.855-0.577 1.393-0.624 1.911-0.167 0.211 0.187 0.259 0.273 0.285 0.515 0.051 0.452-0.181 0.804-1.257 1.916-1.504 1.553-2.199 2.419-2.967 3.697-1.745 2.904-2.492 5.959-2.385 9.753 0.057 2.021 0.273 3.512 0.751 5.169 0.429 1.493 0.947 2.697 1.717 4.011 0.776 1.319 1.427 2.152 2.731 3.493 1.143 1.177 1.427 1.585 1.427 2.055 0 0.467-0.329 0.888-0.795 1.017-0.257 0.071-0.275 0.072-0.549 0.007zM37.968 31.969c-0.243-0.052-0.677-0.52-0.728-0.783-0.079-0.423 0.173-0.801 1.347-2.017 0.579-0.599 1.289-1.385 1.58-1.749 2.131-2.657 3.315-5.613 3.631-9.065 0.097-1.064 0.047-3.807-0.089-4.835-0.284-2.153-0.809-3.916-1.717-5.769-0.869-1.773-1.771-3.031-3.291-4.597-1.021-1.052-1.323-1.436-1.424-1.819-0.101-0.375-0.028-0.653 0.253-0.972 0.385-0.439 0.825-0.477 1.515-0.135 0.835 0.413 1.913 1.497 3.168 3.175 2.523 3.373 3.825 7.087 4.137 11.801 0.267 4.007-0.705 8.063-2.737 11.421-1.401 2.319-3.541 4.695-4.679 5.199-0.299 0.132-0.725 0.196-0.965 0.145zM12.781 29.527c-0.683-0.207-1.077-0.888-0.913-1.573 0.103-0.424 0.527-0.859 0.941-0.964 0.417-0.105 21.983-0.105 22.4 0 0.427 0.107 0.845 0.544 0.939 0.979 0.121 0.571-0.135 1.153-0.631 1.437l-0.263 0.151-11.152 0.011c-6.133 0.007-11.228-0.013-11.321-0.041zM21.276 24.284c-2.071-0.753-3.795-2.221-4.676-3.984-0.489-0.98-0.775-2.167-0.775-3.231 0-1.439 0.563-2.809 2.276-5.545 1.276-2.039 1.493-2.411 1.869-3.193 0.499-1.043 0.664-1.661 0.673-2.536 0.011-0.836-0.115-1.332-0.5-1.98-0.273-0.46-0.888-1.153-1.137-1.283-0.407-0.211-0.491-0.496-0.203-0.685 0.457-0.299 1.705-0.111 2.852 0.435 1.299 0.615 2.255 1.497 2.877 2.655 0.48 0.892 0.675 1.576 0.999 3.529 0.361 2.168 0.72 2.856 1.444 2.773 0.384-0.044 0.623-0.189 0.785-0.477 0.257-0.459 0.147-1.085-0.373-2.123-0.425-0.848-0.399-1.104 0.1-0.972 0.257 0.068 1.097 0.753 1.679 1.369 1.453 1.544 2.176 2.947 2.524 4.896 0.181 1.023 0.197 2.717 0.032 3.603-0.209 1.117-0.631 2.173-1.232 3.075-0.671 1.007-2.067 2.279-3.083 2.808-0.459 0.239-0.617 0.255-0.843 0.077-0.28-0.22-0.221-0.373 0.399-1.031 0.929-0.987 1.403-1.688 1.679-2.481 0.424-1.225 0.213-2.933-0.497-4.023-0.295-0.451-0.725-0.849-0.921-0.849-0.107 0-0.089 0.141 0.109 0.865 0.069 0.253 0.127 0.564 0.127 0.691 0 0.663-0.936 1.144-1.761 0.904-0.671-0.195-0.965-0.803-0.877-1.804 0.027-0.309 0.052-0.872 0.055-1.249 0.005-0.667-0.003-0.7-0.213-1.116-0.411-0.811-1.361-1.645-1.873-1.645-0.221 0-0.239 0.013-0.239 0.176 0 0.109 0.061 0.233 0.161 0.327 0.531 0.495 0.631 1.509 0.237 2.404-0.243 0.553-0.517 0.867-1.455 1.663-1.232 1.045-1.629 1.544-1.875 2.352-0.113 0.373-0.127 0.527-0.095 1.211 0.053 1.151 0.288 1.913 0.836 2.72 0.421 0.62 0.913 1.013 1.583 1.263 0.323 0.12 0.357 0.151 0.357 0.313 0 0.188-0.143 0.311-0.353 0.305-0.063-0.003-0.364-0.095-0.672-0.205z"></path>
</svg>
