<!-- Generated by IcoMoon.io -->
<svg version="1.1" xmlns="http://www.w3.org/2000/svg" width="32" height="32" viewBox="0 0 32 32">
<title>image2vector</title>
<path fill="#fff" d="M11.823 9.51c-0.005 0.005-0.131 0.017-0.28 0.026-0.345 0.022-0.727 0.065-0.791 0.090-0.013 0.005-0.064 0.016-0.112 0.024s-0.124 0.022-0.168 0.031c-0.044 0.009-0.107 0.020-0.14 0.025s-0.064 0.015-0.069 0.023c-0.005 0.008-0.026 0.014-0.047 0.014s-0.055 0.007-0.075 0.015c-0.020 0.008-0.080 0.027-0.133 0.042-0.231 0.066-0.521 0.169-0.68 0.242-0.238 0.11-0.432 0.207-0.508 0.255-0.046 0.029-0.088 0.053-0.092 0.053-0.036 0-0.454 0.299-0.655 0.47-0.156 0.132-0.487 0.471-0.616 0.632-0.066 0.082-0.129 0.159-0.14 0.171s-0.020 0.029-0.020 0.038c0 0.009-0.006 0.017-0.013 0.017s-0.034 0.036-0.060 0.080c-0.026 0.044-0.053 0.080-0.059 0.080s-0.012 0.007-0.012 0.016c0 0.008-0.031 0.064-0.068 0.124-0.102 0.162-0.117 0.189-0.211 0.38-0.085 0.174-0.121 0.252-0.2 0.444-0.026 0.063-0.116 0.322-0.132 0.38-0.008 0.031-0.022 0.078-0.029 0.104-0.224 0.767-0.311 1.707-0.248 2.672 0.032 0.479 0.067 0.792 0.122 1.080 0.029 0.152 0.065 0.31 0.080 0.349 0.008 0.020 0.014 0.054 0.014 0.075s0.006 0.055 0.014 0.075c0.008 0.020 0.023 0.069 0.034 0.109 0.024 0.088 0.124 0.396 0.142 0.44 0.007 0.018 0.033 0.082 0.058 0.144 0.090 0.227 0.246 0.556 0.267 0.565 0.007 0.003 0.012 0.012 0.012 0.021s0.032 0.066 0.072 0.127c0.040 0.061 0.072 0.115 0.072 0.119 0 0.021 0.201 0.293 0.36 0.487 0.147 0.181 0.577 0.577 0.79 0.728 0.037 0.026 0.087 0.064 0.111 0.084s0.049 0.036 0.055 0.036c0.006 0 0.052 0.026 0.102 0.058 0.173 0.111 0.535 0.294 0.71 0.359 0.031 0.011 0.063 0.027 0.071 0.034s0.028 0.013 0.044 0.013c0.016 0 0.042 0.007 0.057 0.015 0.047 0.027 0.365 0.128 0.4 0.128 0.018 0 0.038 0.006 0.043 0.014s0.036 0.018 0.069 0.023c0.033 0.005 0.092 0.016 0.132 0.025 0.225 0.050 0.338 0.071 0.416 0.077 0.048 0.004 0.102 0.013 0.12 0.021 0.037 0.017 0.126 0.024 0.664 0.049 0.66 0.031 1.865-0.021 2.416-0.104 0.092-0.014 0.226-0.033 0.296-0.042s0.171-0.024 0.224-0.032c0.053-0.009 0.128-0.019 0.168-0.024s0.086-0.014 0.104-0.021c0.018-0.007 0.075-0.022 0.128-0.033 0.128-0.026 0.216-0.045 0.308-0.065 0.042-0.009 0.103-0.021 0.136-0.026s0.064-0.015 0.069-0.023c0.005-0.008 0.023-0.014 0.040-0.014 0.033 0 0.274-0.073 0.322-0.098 0.015-0.008 0.041-0.014 0.057-0.014s0.036-0.006 0.044-0.013c0.008-0.007 0.044-0.022 0.079-0.034s0.089-0.032 0.12-0.045c0.082-0.035 0.117-0.049 0.148-0.059 0.027-0.008 0.028-0.166 0.028-3.009v-3h-4.912v2.432h1.209c0.803 0 1.219 0.006 1.24 0.017 0.030 0.016 0.031 0.042 0.031 0.782 0 0.868 0.010 0.807-0.136 0.824-0.044 0.005-0.134 0.016-0.2 0.025-0.63 0.086-1.223 0.098-1.632 0.032-0.057-0.009-0.133-0.021-0.168-0.026s-0.071-0.016-0.079-0.024c-0.008-0.008-0.031-0.014-0.051-0.014s-0.053-0.006-0.073-0.014c-0.020-0.008-0.069-0.027-0.109-0.042s-0.088-0.034-0.108-0.042c-0.020-0.008-0.052-0.020-0.072-0.028-0.131-0.050-0.395-0.203-0.444-0.258-0.004-0.005-0.035-0.029-0.069-0.054-0.249-0.185-0.683-0.807-0.683-0.977 0-0.013-0.007-0.028-0.016-0.033s-0.016-0.027-0.016-0.049c0-0.021-0.006-0.039-0.014-0.039-0.013 0-0.019-0.019-0.044-0.148-0.005-0.029-0.016-0.059-0.022-0.068-0.011-0.014-0.039-0.12-0.072-0.272-0.078-0.361-0.119-1.040-0.090-1.51 0.027-0.447 0.034-0.518 0.050-0.554 0.008-0.018 0.018-0.068 0.023-0.112 0.011-0.105 0.032-0.204 0.065-0.312 0.015-0.048 0.031-0.111 0.035-0.14s0.015-0.056 0.023-0.061c0.008-0.005 0.014-0.025 0.014-0.045s0.006-0.043 0.013-0.051c0.007-0.008 0.023-0.048 0.035-0.087s0.046-0.119 0.075-0.176c0.029-0.057 0.053-0.112 0.053-0.123s0.005-0.021 0.012-0.024c0.007-0.003 0.025-0.031 0.040-0.061 0.031-0.062 0.037-0.072 0.142-0.232 0.088-0.133 0.143-0.198 0.295-0.351 0.248-0.249 0.355-0.32 0.807-0.536 0.020-0.010 0.174-0.059 0.361-0.115 0.027-0.008 0.074-0.015 0.105-0.015s0.063-0.007 0.071-0.015c0.039-0.038 0.939-0.052 1.263-0.019 0.097 0.010 0.223 0.022 0.28 0.026s0.118 0.015 0.136 0.023c0.018 0.008 0.064 0.018 0.104 0.022s0.119 0.019 0.176 0.034c0.131 0.033 0.233 0.056 0.3 0.068 0.029 0.005 0.056 0.015 0.061 0.023s0.023 0.014 0.041 0.014c0.040 0 0.289 0.079 0.31 0.098 0.008 0.008 0.031 0.014 0.051 0.014s0.040 0.007 0.046 0.016c0.005 0.009 0.026 0.016 0.046 0.016s0.043 0.006 0.051 0.014c0.008 0.008 0.045 0.025 0.082 0.040 0.079 0.030 0.193 0.081 0.289 0.127 0.089 0.043 0.075 0.060 0.212-0.284 0.007-0.018 0.028-0.066 0.047-0.109s0.045-0.107 0.059-0.144c0.014-0.037 0.032-0.083 0.040-0.103s0.021-0.052 0.029-0.072c0.052-0.131 0.088-0.219 0.109-0.268 0.032-0.075 0.045-0.107 0.075-0.187 0.027-0.073 0.084-0.204 0.107-0.248 0.008-0.015 0.015-0.041 0.015-0.057s0.006-0.036 0.013-0.044c0.007-0.008 0.034-0.066 0.058-0.127s0.051-0.119 0.059-0.127c0.008-0.008 0.014-0.028 0.014-0.044s0.006-0.042 0.014-0.057c0.008-0.015 0.021-0.046 0.030-0.068s0.035-0.080 0.058-0.128c0.023-0.048 0.042-0.097 0.042-0.108s0.008-0.036 0.018-0.056c0.073-0.14 0.083-0.13-0.266-0.26-0.088-0.033-0.174-0.065-0.192-0.072s-0.097-0.032-0.176-0.056c-0.24-0.072-0.255-0.076-0.288-0.089-0.018-0.007-0.054-0.017-0.080-0.023-0.053-0.011-0.107-0.024-0.264-0.065-0.186-0.048-0.272-0.067-0.472-0.103-0.436-0.078-0.51-0.090-0.728-0.113-0.368-0.040-1.592-0.083-1.617-0.057zM17.499 9.643c-0.014 0.014-0.014 1.767-0 2.129l0.010 0.276 2.931 0.008 0.016 8.88h2.928l0.004-4.424c0.004-4.137 0.006-4.425 0.031-4.444 0.021-0.016 0.343-0.020 1.48-0.020h1.453l-0.004-1.204-0.004-1.204-4.417-0.004c-2.43-0.002-4.422 0.001-4.428 0.007z"></path>
<path fill="#D32512" d="M0 16v16h32v-32h-32v16zM13.2 9.518c0.246 0.022 0.441 0.045 0.624 0.076 0.084 0.014 0.192 0.032 0.24 0.040 0.19 0.031 0.344 0.065 0.616 0.135 0.123 0.032 0.249 0.064 0.28 0.071 0.188 0.044 0.85 0.272 0.887 0.306 0.008 0.008 0.026 0.014 0.040 0.014 0.066 0.001 0.103 0.056 0.075 0.112-0.014 0.029-0.026 0.059-0.026 0.066s-0.019 0.055-0.042 0.106c-0.023 0.051-0.047 0.107-0.055 0.124s-0.111 0.277-0.232 0.576c-0.12 0.299-0.232 0.575-0.249 0.612s-0.031 0.077-0.031 0.089c0 0.012-0.006 0.028-0.014 0.036s-0.034 0.069-0.058 0.135c-0.025 0.066-0.057 0.149-0.073 0.184s-0.058 0.14-0.095 0.232c-0.087 0.218-0.085 0.217-0.184 0.167-0.316-0.16-0.933-0.363-1.352-0.445-0.111-0.022-0.168-0.031-0.448-0.073-1.544-0.231-2.749 0.275-3.255 1.367-0.179 0.385-0.245 0.606-0.328 1.088-0.097 0.561-0.075 1.517 0.045 2.048 0.008 0.035 0.022 0.1 0.031 0.144 0.035 0.167 0.152 0.488 0.249 0.68 0.546 1.089 1.611 1.475 3.346 1.216 0.062-0.009 0.153-0.022 0.203-0.029 0.153-0.021 0.141 0.047 0.141-0.804 0-0.413-0.002-0.752-0.004-0.754s-0.558-0.008-1.236-0.012l-1.232-0.008-0.008-2.472h4.944v6.026l-0.068 0.028c-0.037 0.016-0.084 0.035-0.104 0.043s-0.052 0.022-0.072 0.030c-0.068 0.030-0.433 0.146-0.587 0.187-0.223 0.060-0.318 0.081-0.665 0.148-0.322 0.062-0.378 0.071-0.808 0.128-0.274 0.037-0.831 0.081-1.408 0.113-1.158 0.064-2.205-0.081-3.026-0.418-0.169-0.069-0.554-0.26-0.634-0.314-0.024-0.016-0.066-0.040-0.092-0.053-0.056-0.027-0.219-0.133-0.25-0.164-0.012-0.012-0.047-0.039-0.078-0.060-0.57-0.397-1.183-1.2-1.479-1.936-0.034-0.084-0.067-0.166-0.074-0.184-0.047-0.112-0.152-0.451-0.193-0.62-0.085-0.354-0.105-0.453-0.143-0.708-0.067-0.453-0.087-0.773-0.087-1.416 0-0.853 0.040-1.233 0.202-1.896 0.009-0.035 0.021-0.089 0.029-0.12 0.015-0.065 0.108-0.361 0.129-0.408 0.008-0.018 0.022-0.057 0.033-0.088s0.029-0.078 0.040-0.104c0.011-0.026 0.037-0.088 0.057-0.136 0.061-0.147 0.241-0.498 0.314-0.612 0.038-0.060 0.069-0.112 0.069-0.116 0-0.009 0.176-0.265 0.191-0.279 0.005-0.004 0.030-0.037 0.056-0.072 0.471-0.632 1.197-1.188 2.028-1.551 0.275-0.12 0.807-0.284 1.124-0.345 0.203-0.039 0.245-0.047 0.408-0.071 0.092-0.014 0.212-0.032 0.266-0.041s0.144-0.016 0.2-0.017c0.056-0.001 0.142-0.007 0.19-0.014 0.12-0.017 1.403-0.007 1.632 0.013zM26.381 10.792c0.003 0.651 0 1.207-0.005 1.236l-0.009 0.052-1.459 0c-0.803 0-1.468 0.006-1.479 0.013-0.016 0.010-0.021 0.923-0.024 4.444l-0.004 4.431h-2.944l-0.016-8.88-1.474-0.004c-1.385-0.004-1.475-0.006-1.486-0.032-0.015-0.034-0.031-2.355-0.017-2.411l0.010-0.041 8.903 0.008 0.005 1.184z"></path>
<path fill="#D32512" d="M11.568 9.504c-0.048 0.007-0.134 0.013-0.19 0.014s-0.146 0.009-0.2 0.017c-0.054 0.008-0.173 0.027-0.266 0.041-0.163 0.025-0.205 0.032-0.408 0.071-0.317 0.062-0.849 0.225-1.124 0.345-0.643 0.281-1.13 0.607-1.585 1.059-0.247 0.246-0.32 0.326-0.443 0.492-0.026 0.035-0.052 0.068-0.056 0.072-0.016 0.015-0.191 0.271-0.191 0.279 0 0.005-0.031 0.057-0.069 0.116-0.073 0.115-0.253 0.465-0.314 0.612-0.020 0.048-0.046 0.11-0.057 0.136s-0.029 0.073-0.040 0.104c-0.011 0.031-0.026 0.070-0.033 0.088-0.020 0.047-0.113 0.343-0.129 0.408-0.007 0.031-0.020 0.085-0.029 0.12-0.161 0.663-0.202 1.043-0.202 1.896-0 0.643 0.020 0.963 0.087 1.416 0.038 0.255 0.058 0.354 0.143 0.708 0.041 0.169 0.146 0.508 0.193 0.62 0.007 0.018 0.041 0.1 0.074 0.184 0.295 0.736 0.908 1.539 1.479 1.936 0.031 0.021 0.066 0.048 0.078 0.060 0.031 0.030 0.194 0.137 0.25 0.164 0.026 0.013 0.068 0.036 0.092 0.053 0.308 0.208 1.031 0.486 1.524 0.586 0.053 0.011 0.126 0.026 0.163 0.034s0.079 0.015 0.095 0.015c0.057 0 0.005-0.019-0.116-0.042-0.069-0.013-0.158-0.031-0.198-0.040s-0.099-0.020-0.132-0.025c-0.033-0.005-0.064-0.015-0.069-0.023s-0.024-0.014-0.043-0.014c-0.035 0-0.353-0.102-0.4-0.128-0.015-0.008-0.041-0.015-0.057-0.015s-0.036-0.006-0.044-0.013c-0.008-0.007-0.040-0.023-0.071-0.034-0.175-0.065-0.537-0.248-0.71-0.359-0.050-0.032-0.096-0.058-0.102-0.058s-0.031-0.016-0.055-0.036c-0.024-0.020-0.074-0.058-0.111-0.084-0.213-0.152-0.642-0.548-0.79-0.728-0.159-0.195-0.36-0.466-0.36-0.487 0-0.004-0.032-0.058-0.072-0.119s-0.072-0.118-0.072-0.127c0-0.009-0.005-0.018-0.012-0.021-0.022-0.010-0.177-0.339-0.267-0.565-0.025-0.062-0.051-0.126-0.058-0.144-0.018-0.044-0.118-0.352-0.142-0.44-0.011-0.040-0.026-0.089-0.034-0.109s-0.014-0.054-0.014-0.075c0-0.021-0.006-0.055-0.014-0.075-0.032-0.084-0.103-0.444-0.131-0.669-0.092-0.735-0.114-1.345-0.071-1.928 0.047-0.644 0.11-1.025 0.249-1.508 0.008-0.029 0.021-0.075 0.029-0.104 0.015-0.056 0.106-0.316 0.131-0.376 0.079-0.191 0.115-0.27 0.2-0.444 0.094-0.191 0.109-0.218 0.211-0.38 0.037-0.060 0.068-0.115 0.068-0.124s0.005-0.016 0.012-0.016c0.007-0 0.033-0.036 0.059-0.080s0.053-0.080 0.060-0.080c0.007 0 0.013-0.008 0.013-0.017s0.009-0.027 0.020-0.038c0.011-0.012 0.074-0.088 0.14-0.171 0.129-0.161 0.46-0.5 0.616-0.632 0.202-0.17 0.62-0.47 0.655-0.47 0.004 0 0.046-0.024 0.092-0.053 0.076-0.048 0.271-0.146 0.508-0.255 0.159-0.073 0.449-0.177 0.68-0.242 0.053-0.015 0.113-0.034 0.133-0.042s0.054-0.015 0.075-0.015c0.021 0 0.042-0.006 0.047-0.014s0.036-0.018 0.069-0.023c0.033-0.005 0.096-0.016 0.14-0.025s0.12-0.023 0.168-0.031c0.048-0.008 0.099-0.019 0.112-0.024 0.027-0.010 0.217-0.038 0.4-0.059 0.645-0.073 1.571-0.073 2.288-0 0.153 0.015 0.294 0.036 0.504 0.073 0.439 0.078 0.474 0.085 0.696 0.143 0.157 0.041 0.211 0.054 0.264 0.065 0.026 0.005 0.062 0.016 0.080 0.023s0.097 0.033 0.176 0.056c0.238 0.071 0.255 0.076 0.288 0.089 0.018 0.007 0.104 0.039 0.192 0.071 0.322 0.119 0.333 0.127 0.294 0.204s-0.045 0.092-0.045 0.12c0.001 0.027 0.016-0.002 0.075-0.138 0.025-0.058-0.012-0.112-0.077-0.113-0.014-0-0.032-0.007-0.040-0.014-0.037-0.034-0.699-0.263-0.887-0.306-0.031-0.007-0.157-0.039-0.28-0.071-0.272-0.070-0.426-0.104-0.616-0.135-0.048-0.008-0.156-0.026-0.24-0.040-0.183-0.031-0.377-0.054-0.624-0.076-0.229-0.020-1.512-0.031-1.632-0.013zM17.462 9.64c-0.014 0.057 0.002 2.377 0.017 2.411 0.014 0.033 2.974 0.053 2.963 0.020-0.003-0.010-0.511-0.018-1.47-0.020l-1.465-0.004-0.011-0.372c-0.006-0.205-0.009-0.746-0.006-1.204l0.005-0.832h8.848l0.004 1.204 0.004 1.204h-1.453c-1.137 0-1.459 0.004-1.48 0.020-0.025 0.019-0.027 0.307-0.031 4.444l-0.004 4.424h-1.468c-0.972 0-1.466 0.005-1.463 0.016s0.51 0.016 1.476 0.016h1.471l0.004-4.431c0.003-3.521 0.008-4.434 0.024-4.444 0.011-0.007 0.677-0.013 1.479-0.013l1.459-0 0.009-0.052c0.005-0.029 0.007-0.585 0.005-1.236l-0.005-1.184-8.903-0.008-0.010 0.041zM15.839 10.522c-0.019 0.043-0.042 0.096-0.051 0.118s-0.023 0.053-0.030 0.068c-0.008 0.015-0.014 0.041-0.014 0.057s-0.006 0.036-0.014 0.044c-0.008 0.008-0.034 0.066-0.059 0.127s-0.051 0.119-0.058 0.127c-0.007 0.008-0.013 0.028-0.013 0.044s-0.007 0.042-0.015 0.057c-0.023 0.044-0.080 0.175-0.107 0.248-0.030 0.080-0.043 0.113-0.075 0.187-0.024 0.057-0.085 0.206-0.107 0.264-0.007 0.018-0.020 0.050-0.029 0.072s-0.028 0.070-0.042 0.107c-0.014 0.037-0.040 0.102-0.059 0.144s-0.040 0.091-0.047 0.109c-0.136 0.345-0.123 0.327-0.212 0.284-0.096-0.047-0.21-0.097-0.289-0.127-0.037-0.014-0.074-0.032-0.082-0.040s-0.031-0.014-0.051-0.014c-0.020 0-0.040-0.007-0.046-0.016s-0.026-0.016-0.046-0.016c-0.020 0-0.043-0.006-0.051-0.014-0.021-0.019-0.27-0.098-0.31-0.098-0.018 0-0.036-0.006-0.041-0.014-0.009-0.014-0.060-0.026-0.181-0.042-0.033-0.004 0.008 0.011 0.092 0.034 0.313 0.085 0.794 0.261 1 0.365 0.099 0.050 0.097 0.051 0.184-0.167 0.037-0.092 0.080-0.197 0.095-0.232s0.048-0.118 0.073-0.184c0.025-0.066 0.051-0.127 0.058-0.135s0.014-0.025 0.014-0.036c0-0.012 0.014-0.052 0.031-0.089s0.129-0.313 0.249-0.612c0.26-0.648 0.248-0.617 0.267-0.654 0.008-0.016 0.012-0.033 0.007-0.038s-0.024 0.027-0.043 0.070zM11.925 12.028c-0.010 0.006 0.182 0.012 0.428 0.012s0.434-0.005 0.418-0.011c-0.037-0.015-0.823-0.016-0.846-0.001zM11.672 12.064c-0.005 0.009-0.036 0.016-0.068 0.016s-0.080 0.007-0.107 0.015c-0.187 0.056-0.341 0.105-0.361 0.115-0.452 0.216-0.56 0.287-0.807 0.536-0.152 0.153-0.207 0.218-0.295 0.351-0.105 0.16-0.111 0.169-0.142 0.232-0.015 0.031-0.033 0.058-0.040 0.061s-0.012 0.014-0.012 0.024c-0 0.010-0.024 0.065-0.053 0.123s-0.063 0.136-0.075 0.176c-0.012 0.040-0.028 0.079-0.035 0.087s-0.013 0.031-0.013 0.051c0 0.020-0.007 0.040-0.016 0.046s-0.015 0.029-0.015 0.053c0.001 0.035 0.006 0.030 0.025-0.029 0.013-0.040 0.039-0.112 0.057-0.16 0.030-0.081 0.052-0.132 0.145-0.336 0.317-0.693 1.008-1.196 1.844-1.344 0.154-0.027 0.157-0.028 0.069-0.030-0.050-0.001-0.095 0.006-0.101 0.014zM12.896 12.057c0.022 0.003 0.108 0.014 0.192 0.024 0.177 0.021 0.359 0.050 0.527 0.085 0.065 0.014 0.122 0.022 0.125 0.018 0.013-0.013-0.168-0.056-0.284-0.068-0.040-0.004-0.086-0.014-0.104-0.022s-0.079-0.019-0.136-0.024c-0.135-0.012-0.372-0.023-0.32-0.015zM9.601 14.059c-0.048 0.16-0.081 0.319-0.081 0.388 0 0.035-0.007 0.067-0.016 0.073s-0.015 0.055-0.014 0.109c0.001 0.055 0.005 0.078 0.008 0.051 0.015-0.122 0.064-0.383 0.103-0.542 0.032-0.13 0.031-0.187-0.001-0.079zM11.060 15.78l0.004 1.236 1.232 0.008c0.678 0.005 1.234 0.010 1.236 0.012s0.004 0.341 0.004 0.754c0 0.848 0.011 0.785-0.134 0.803-0.045 0.006-0.14 0.020-0.21 0.030s-0.175 0.025-0.232 0.032l-0.104 0.013 0.12-0.007c0.066-0.004 0.174-0.014 0.24-0.023s0.156-0.021 0.2-0.026c0.146-0.017 0.136 0.044 0.136-0.824 0-0.74-0.001-0.765-0.031-0.782-0.021-0.011-0.437-0.017-1.24-0.017h-1.209v-2.432h4.912v3c0 2.844-0.001 3.001-0.028 3.009-0.031 0.010-0.066 0.024-0.148 0.059-0.031 0.013-0.085 0.033-0.12 0.045s-0.071 0.027-0.079 0.034c-0.008 0.007-0.028 0.013-0.044 0.013s-0.042 0.007-0.057 0.015c-0.015 0.008-0.082 0.031-0.148 0.051s-0.112 0.038-0.103 0.042c0.015 0.005 0.41-0.117 0.495-0.153 0.067-0.028 0.114-0.048 0.18-0.076l0.068-0.028v-6.026h-4.944l0.004 1.236zM9.461 14.81c-0.021 0.099-0.013 1.222 0.009 1.27 0.016 0.034 0.017 0.025 0.010-0.056-0.021-0.245-0.027-0.801-0.010-1.022 0.018-0.239 0.015-0.306-0.009-0.191zM9.496 16.24c0.012 0.201 0.091 0.598 0.124 0.618 0.012 0.007 0.013 0 0.006-0.020-0.006-0.017-0.019-0.067-0.028-0.111s-0.024-0.112-0.033-0.152c-0.009-0.040-0.029-0.155-0.045-0.256-0.022-0.14-0.028-0.159-0.023-0.080zM9.639 16.924c0.018 0.112 0.029 0.148 0.042 0.148 0.008 0 0.014 0.018 0.014 0.039s0.007 0.044 0.016 0.049c0.009 0.005 0.016 0.020 0.016 0.033 0 0.17 0.435 0.792 0.683 0.977 0.033 0.025 0.064 0.049 0.069 0.054 0.048 0.054 0.313 0.208 0.444 0.258 0.020 0.008 0.052 0.020 0.072 0.028s0.068 0.027 0.108 0.042c0.040 0.015 0.089 0.034 0.109 0.042s0.053 0.014 0.073 0.014c0.020 0 0.043 0.006 0.051 0.014s0.048 0.019 0.087 0.025c0.092 0.013 0.245 0.025 0.192 0.015-1.017-0.194-1.601-0.684-1.923-1.611-0.034-0.098-0.058-0.155-0.053-0.126zM11.696 18.691c0.054 0.026 1.069 0.025 1.113-0.001 0.023-0.013-0.022-0.015-0.177-0.006-0.269 0.015-0.667 0.015-0.84-0-0.11-0.010-0.128-0.008-0.096 0.007zM15.144 20.848c-0.012 0.019 0.020 0.019 0.064 0 0.029-0.012 0.027-0.014-0.011-0.015-0.024-0.001-0.047 0.006-0.053 0.015zM15.019 20.875c-0.006 0.006-0.043 0.017-0.083 0.024s-0.103 0.020-0.14 0.028c-0.037 0.008-0.111 0.023-0.164 0.034-0.127 0.026-0.142 0.031-0.132 0.041 0.008 0.008 0.098-0.009 0.316-0.058 0.111-0.025 0.201-0.046 0.256-0.061l0.056-0.015-0.049-0.002c-0.027-0.001-0.054 0.003-0.060 0.009zM14.33 21.020c-0.006 0.006-0.053 0.017-0.103 0.023s-0.145 0.019-0.211 0.027c-0.066 0.009-0.185 0.024-0.264 0.034-0.175 0.022-0.223 0.031-0.21 0.044 0.005 0.005 0.069 0.001 0.142-0.009s0.187-0.026 0.253-0.035c0.352-0.048 0.571-0.091 0.479-0.093-0.040-0.001-0.078 0.004-0.085 0.010zM10.568 21.176c0.624 0.102 1.285 0.108 2.448 0.024l0.176-0.013-0.176 0.004c-0.097 0.002-0.435 0.013-0.752 0.024-0.65 0.022-1.587-0.007-1.631-0.049-0.008-0.008-0.055-0.014-0.104-0.013l-0.089 0.002 0.128 0.021zM13.216 21.169c-0.017 0.011 0.018 0.013 0.112 0.006 0.075-0.006 0.139-0.013 0.143-0.017 0.016-0.014-0.233-0.004-0.255 0.011z"></path>
</svg>
