<!-- Generated by IcoMoon.io -->
<svg version="1.1" xmlns="http://www.w3.org/2000/svg" width="32" height="32" viewBox="0 0 32 32">
<title>habrahabr</title>
<path fill="#fff" d="M10.725 8.507l-0.045 0.059v6.937c0 6.985 0 7.034 0.057 7.090 0.046 0.046 3.354 0.049 3.395 0.003 0.058-0.065 0.060-0.166 0.060-2.904 0-2.919-0.005-2.741 0.087-2.802 0.037-0.024 0.219-0.026 2.17-0.026h2.13l0.109 0.109v2.665c0 2.721 0.003 2.862 0.060 2.95l0.023 0.036h1.668c1.905 0 1.706 0.018 1.736-0.16 0.037-0.218 0.015-13.901-0.023-13.964l-0.031-0.052h-3.351l-0.090 0.118v2.785c0 3.015 0.005 2.833-0.088 2.881-0.068 0.035-4.217 0.037-4.285 0.002-0.118-0.061-0.106 0.242-0.115-2.887-0.008-2.742-0.009-2.795-0.039-2.846l-0.031-0.052h-3.351l-0.045 0.059z"></path>
<path fill="#D32512" d="M14.325 8.484c-0.025 0.039-0.025 5.621 0 5.642 0.016 0.014 0.56 0.017 2.132 0.014l2.11-0.004 0.005-0.68c0.003-0.374 0-0.718-0.005-0.765l-0.010-0.085-1.97-1.971c-2.048-2.048-2.221-2.213-2.262-2.151zM22.325 8.484c-0.007 0.011-0.017 3.202-0.021 7.092-0.005 4.082-0.014 7.085-0.022 7.104s-0.047 0.066-0.087 0.108l-0.073 0.076h-3.352l-0.072-0.072c-0.121-0.121-0.111 0.107-0.121-3l-0.008-2.808h-4.256l-0.008 2.832c-0.006 2.097-0.013 2.842-0.027 2.872-0.010 0.022-0.050 0.070-0.088 0.107l-0.070 0.068-3.136 0.009-0.060 0.038c-0.118 0.074-0.117 0.079 0.103 0.289 0.108 0.104 0.21 0.202 0.226 0.219 0.125 0.13 0.818 0.824 0.861 0.863 0.030 0.027 0.079 0.077 0.11 0.112s0.072 0.078 0.091 0.095c0.042 0.038 0.476 0.472 0.533 0.532 0.022 0.023 0.065 0.064 0.096 0.091s0.077 0.073 0.104 0.104c0.027 0.030 0.076 0.081 0.111 0.112s0.077 0.075 0.096 0.097c0.019 0.022 0.167 0.171 0.33 0.33 0.359 0.352 0.309 0.302 0.662 0.662 0.16 0.163 0.308 0.311 0.33 0.33s0.065 0.062 0.097 0.096c0.031 0.034 0.082 0.084 0.112 0.111s0.077 0.073 0.104 0.104c0.027 0.031 0.068 0.074 0.091 0.096 0.060 0.057 0.494 0.491 0.532 0.533 0.018 0.019 0.061 0.060 0.095 0.091s0.085 0.080 0.112 0.11c0.027 0.030 0.225 0.229 0.44 0.443s0.406 0.403 0.422 0.419c0.017 0.017 0.217 0.218 0.446 0.447s0.43 0.43 0.448 0.448c0.042 0.042 0.838 0.838 0.88 0.88 0.018 0.018 0.219 0.219 0.448 0.448s0.43 0.43 0.447 0.446c0.329 0.324 0.476 0.489 0.476 0.534v0.048h12.272v-14.064h-0.056c-0.053 0-0.282-0.226-4.692-4.636-4.714-4.714-4.885-4.881-4.927-4.816z"></path>
<path fill="#D32512" d="M0.001 16v16h19.727v-0.048c0-0.045-0.145-0.208-0.478-0.536-0.018-0.018-0.22-0.219-0.448-0.448s-0.43-0.43-0.446-0.446c-0.040-0.040-0.837-0.837-0.878-0.878-0.018-0.018-0.219-0.219-0.448-0.448s-0.43-0.43-0.446-0.447c-0.017-0.017-0.207-0.206-0.422-0.419s-0.414-0.413-0.44-0.443c-0.027-0.030-0.077-0.079-0.112-0.11s-0.078-0.072-0.095-0.091c-0.038-0.042-0.472-0.476-0.532-0.533-0.023-0.022-0.064-0.065-0.091-0.096s-0.073-0.077-0.104-0.104c-0.030-0.027-0.081-0.076-0.112-0.111s-0.075-0.077-0.097-0.096c-0.022-0.019-0.171-0.167-0.33-0.33-0.352-0.359-0.303-0.309-0.662-0.662-0.163-0.16-0.311-0.308-0.33-0.33s-0.062-0.065-0.096-0.097c-0.034-0.031-0.084-0.082-0.111-0.112s-0.073-0.077-0.104-0.104c-0.031-0.027-0.074-0.068-0.096-0.091-0.057-0.060-0.491-0.494-0.533-0.532-0.019-0.018-0.060-0.061-0.091-0.095s-0.080-0.085-0.11-0.112c-0.043-0.038-0.736-0.733-0.861-0.863-0.016-0.017-0.118-0.115-0.226-0.219-0.22-0.21-0.222-0.215-0.103-0.289l0.060-0.038 3.136-0.009 0.070-0.068c0.038-0.037 0.078-0.085 0.088-0.107 0.014-0.030 0.021-0.775 0.027-2.872l0.008-2.832h4.256l0.008 2.808c0.009 3.108 0 2.88 0.121 3l0.072 0.072h3.352l0.075-0.076c0.116-0.118 0.107 0.434 0.11-7.164 0.002-6.806 0.004-7.143 0.040-7.155 0.050-0.016 0.625 0.55 4.906 4.831 4.41 4.41 4.638 4.636 4.692 4.636h0.056v-17.935h-31.999v16zM14.153 8.5c0.031 0.051 0.032 0.104 0.039 2.846 0.009 3.129-0.003 2.826 0.115 2.887 0.068 0.035 4.217 0.033 4.285-0.002 0.093-0.048 0.088 0.134 0.088-2.881v-2.785l0.090-0.118h3.351l0.031 0.052c0.037 0.062 0.060 13.745 0.023 13.964-0.030 0.178 0.169 0.16-1.736 0.16h-1.668l-0.023-0.036c-0.057-0.088-0.060-0.229-0.060-2.95v-2.665l-0.109-0.109h-2.13c-1.952 0-2.134 0.002-2.17 0.026-0.092 0.060-0.087-0.117-0.087 2.802 0 2.738-0.002 2.839-0.060 2.904-0.041 0.046-3.349 0.043-3.395-0.003-0.056-0.056-0.057-0.105-0.057-7.090v-6.937l0.090-0.117h3.351l0.031 0.052zM14.491 8.564c0.069 0.055 1.012 0.987 2.096 2.071l1.97 1.971 0.010 0.085c0.005 0.047 0.008 0.391 0.005 0.765l-0.005 0.68-2.11 0.004c-1.572 0.003-2.116-0.001-2.132-0.014-0.025-0.021-0.025-5.603-0-5.642 0.020-0.032 0.033-0.026 0.166 0.080z"></path>
</svg>
