<!-- Generated by IcoMoon.io -->
<svg version="1.1" xmlns="http://www.w3.org/2000/svg" width="32" height="32" viewBox="0 0 32 32">
<title>htmlacademy</title>
<path fill="#fff" d="M16.128 0.001h-0.128l-12.608 1.344v23.168l12.608 7.488 12.608-7.488v-23.168l-12.48-1.344zM27.008 23.552l-11.008 6.528-11.008-6.528v-9.472l10.944 6.528v1.152l-7.488-4.48v1.152l7.552 4.544v1.216l-7.552-4.48v1.152l7.552 4.48 7.616-4.544v-4.864l3.392-2.048v9.664zM26.944 12.672l-3.008 1.792-1.408 0.832-6.592-3.904v1.152l5.632 3.392h-0.064l-0.128 0.064-0.832 0.448-4.672-2.752v1.152l3.712 2.176-0.896 0.576-2.752-1.664v1.152l1.856 1.088-1.856 1.088-10.88-6.464 10.88-6.528 11.008 6.4zM27.008 11.52l-11.072-6.528-10.944 6.528v-8.704l11.008-1.152 11.008 1.152v8.704z"></path>
</svg>
