<?xml version="1.0" encoding="utf-8"?>
<!-- Generated by IcoMoon.io -->
<!DOCTYPE svg PUBLIC "-//W3C//DTD SVG 1.1//EN" "http://www.w3.org/Graphics/SVG/1.1/DTD/svg11.dtd">
<svg version="1.1" xmlns="http://www.w3.org/2000/svg" xmlns:xlink="http://www.w3.org/1999/xlink" width="58" height="58" viewBox="0 0 50 50">
<path fill="#fff" d="M25 0.617c-13.806 0-25 11.192-25 25 0 11.046 7.163 20.417 17.096 23.722 1.249 0.231 1.709-0.542 1.709-1.203 0-0.596-0.023-2.566-0.034-4.654-6.955 1.512-8.423-2.95-8.423-2.95-1.137-2.889-2.776-3.658-2.776-3.658-2.268-1.552 0.171-1.52 0.171-1.52 2.51 0.176 3.832 2.576 3.832 2.576 2.23 3.822 5.848 2.717 7.276 2.078 0.224-1.616 0.872-2.719 1.587-3.343-5.553-0.632-11.39-2.776-11.39-12.355 0-2.729 0.977-4.96 2.576-6.71-0.26-0.63-1.116-3.172 0.242-6.616 0 0 2.1-0.671 6.877 2.563 1.994-0.554 4.133-0.832 6.258-0.842 2.124 0.010 4.264 0.287 6.262 0.842 4.772-3.235 6.868-2.563 6.868-2.563 1.361 3.444 0.505 5.986 0.246 6.616 1.603 1.751 2.573 3.981 2.573 6.71 0 9.602-5.849 11.716-11.416 12.335 0.897 0.776 1.696 2.297 1.696 4.629 0 3.345-0.029 6.037-0.029 6.861 0 0.665 0.45 1.445 1.717 1.2 9.928-3.309 17.082-12.677 17.082-23.719 0-13.808-11.193-25-25-25z"></path>
</svg>
