<?xml version="1.0" encoding="utf-8"?>
<!-- Generated by IcoMoon.io -->
<!DOCTYPE svg PUBLIC "-//W3C//DTD SVG 1.1//EN" "http://www.w3.org/Graphics/SVG/1.1/DTD/svg11.dtd">
<svg version="1.1" xmlns="http://www.w3.org/2000/svg" xmlns:xlink="http://www.w3.org/1999/xlink" width="50" height="50" viewBox="0 0 50 50">
<path fill="#fff" d="M41.666 0h-33.331c-4.584 0-8.334 3.749-8.334 8.333v33.333c0 4.584 3.75 8.334 8.334 8.334h33.331c4.587 0 8.334-3.75 8.334-8.334v-33.333c0-4.584-3.748-8.333-8.334-8.333zM12.5 12.5h25c0.446 0 0.879 0.096 1.277 0.276l-13.777 16.073-13.777-16.073c0.397-0.18 0.83-0.276 1.277-0.276zM9.375 34.375v-18.75c0-0.065 0.003-0.13 0.007-0.195l9.163 10.69-9.062 9.063c-0.071-0.261-0.108-0.532-0.108-0.808zM37.5 37.5h-25c-0.276 0-0.547-0.037-0.808-0.108l8.892-8.892 4.415 5.151 4.415-5.151 8.892 8.892c-0.261 0.070-0.532 0.108-0.808 0.108zM40.625 34.375c0 0.276-0.037 0.547-0.108 0.808l-9.062-9.062 9.163-10.691c0.004 0.065 0.007 0.13 0.007 0.195v18.75z"></path>
</svg>
